<svg width="30" height="27" viewBox="0 0 30 27" fill="none" xmlns="http://www.w3.org/2000/svg">
<path d="M28.6364 9.95858H22.1045L16.1182 0.628402C15.5727 -0.209467 14.3864 -0.209467 13.8545 0.628402L7.86818 9.95858H1.36364C0.613636 9.95858 0 10.5976 0 11.3787C0 11.5065 0.0136363 11.6343 0.0545454 11.7621L3.51818 24.9266C3.83182 26.1195 4.88182 27 6.13636 27H23.8636C25.1182 27 26.1682 26.1195 26.4955 24.9266L29.9591 11.7621L30 11.3787C30 10.5976 29.3864 9.95858 28.6364 9.95858ZM14.9864 3.97988L18.8182 9.95858H11.1545L14.9864 3.97988ZM15 21.3195C13.5 21.3195 12.2727 20.0414 12.2727 18.4793C12.2727 16.9172 13.5 15.6391 15 15.6391C16.5 15.6391 17.7273 16.9172 17.7273 18.4793C17.7273 20.0414 16.5 21.3195 15 21.3195Z" fill="#994A00"/>
</svg>
